<?xml version="1.0" encoding="UTF-8"?>
<!DOCTYPE svg PUBLIC "-//W3C//DTD SVG 1.1//EN" "http://www.w3.org/Graphics/SVG/1.1/DTD/svg11.dtd">
<!-- Creator: CorelDRAW X7 -->
<svg xmlns="http://www.w3.org/2000/svg" xml:space="preserve" width="101.565mm" height="23.0016mm" version="1.1" style="shape-rendering:geometricPrecision; text-rendering:geometricPrecision; image-rendering:optimizeQuality; fill-rule:evenodd; clip-rule:evenodd"
viewBox="0 0 10156 2300"
 xmlns:xlink="http://www.w3.org/1999/xlink">
 <defs>
  <style type="text/css">
   <![CDATA[
    .fil0 {fill:#E51B4D}
    .fil1 {fill:white}
   ]]>
  </style>
 </defs>
 <g id="Layer_x0020_1">
  <metadata id="CorelCorpID_0Corel-Layer"/>
  <g id="_708188192">
   <g>
    <rect class="fil0" width="2300" height="2300" rx="326" ry="326"/>
    <path class="fil1" d="M499 1896c7,2 43,-29 51,-35l255 -192c16,-12 35,-28 51,-39 8,-5 22,4 30,8 11,5 22,9 33,13 192,71 402,51 576,-57 248,-155 364,-464 275,-744 -24,-76 -73,-172 -129,-230 -31,-32 -55,-60 -91,-87 -37,-27 -69,-50 -110,-70 -189,-91 -393,-91 -582,0 -156,75 -280,223 -331,386 -16,52 -23,97 -28,151 -3,24 -1,145 -1,179 0,68 -3,708 1,717z"/>
    <path class="fil0" d="M994 1108c35,-17 63,42 22,59 -27,11 -53,-21 -39,-45 6,-11 7,-9 17,-14zm104 0c15,-7 36,6 39,21 3,16 -5,36 -23,39 -34,5 -48,-28 -35,-48 7,-10 10,-9 19,-12zm144 -76c39,-9 75,17 82,54 8,37 -18,75 -54,82 -67,12 -106,-64 -70,-110 13,-16 25,-22 42,-26zm-275 -123c7,-3 214,-3 223,-1 2,9 2,59 -1,65 -3,4 -98,2 -110,2 -14,0 -106,2 -111,-3 -4,-5 -4,-56 -1,-63zm251 64c-3,-8 -3,-57 -1,-65 9,-2 96,-2 104,0 2,7 2,59 -1,66 -8,2 -95,2 -102,-1zm-205 -135l98 -63c26,-15 59,-39 86,-55 6,-4 9,-3 6,-13 -10,-4 -14,3 -23,8l-59 38c-27,16 -53,34 -80,50 -7,5 -55,36 -60,37 -22,4 -43,-9 -74,25 -12,14 -13,35 -13,52 0,44 0,87 0,131 0,28 -4,102 6,125 17,40 55,37 92,37l326 0c21,0 36,2 55,-10 35,-22 29,-64 29,-100 0,-44 0,-87 0,-130 0,-35 7,-85 -19,-111 -27,-26 -77,-19 -113,-19l-251 0c-7,-1 -5,-1 -6,-2z"/>
    <path class="fil0" d="M1366 762c10,6 45,-3 82,30 12,11 27,37 30,53 1,8 -1,19 4,26l8 0c7,-13 -3,-40 -8,-53 -13,-34 -57,-66 -96,-67 -11,0 -25,-3 -20,11z"/>
    <path class="fil0" d="M1365 783c-3,16 17,10 31,12 21,3 41,20 51,40 7,12 6,28 10,36l10 -1c5,-24 -12,-53 -28,-67 -21,-19 -61,-28 -74,-20z"/>
    <path class="fil0" d="M1364 811c-4,19 17,4 39,23 6,5 12,10 16,16 4,7 7,17 11,21l9 -1c8,-27 -52,-72 -75,-59z"/>
    <path class="fil1" d="M967 909c-3,7 -3,58 1,63 5,5 97,3 111,3 12,0 107,2 110,-2 3,-6 3,-56 1,-65 -9,-2 -216,-2 -223,1z"/>
    <path class="fil1" d="M1242 1032c-17,4 -29,10 -42,26 -36,46 3,122 70,110 36,-7 62,-45 54,-82 -7,-37 -43,-63 -82,-54z"/>
    <path class="fil1" d="M1218 973c7,3 94,3 102,1 3,-7 3,-59 1,-66 -8,-2 -95,-2 -104,0 -2,8 -2,57 1,65z"/>
    <path class="fil1" d="M994 1108c-10,5 -11,3 -17,14 -14,24 12,56 39,45 41,-17 13,-76 -22,-59z"/>
    <path class="fil1" d="M1098 1108c-9,3 -12,2 -19,12 -13,20 1,53 35,48 18,-3 26,-23 23,-39 -3,-15 -24,-28 -39,-21z"/>
   </g>
   <g>
    <path class="fil0" d="M9618 1556c24,0 32,-1 47,-10 32,-20 37,-41 52,-63 3,-6 2,-4 5,-11 5,-9 1,0 6,-7 2,-3 1,-2 2,-5 1,-1 3,-5 3,-5l13 -27c1,0 1,-1 2,-1l129 -244c3,-5 8,-15 10,-19 5,-10 3,-9 9,-18 15,-23 44,-83 59,-114 8,-17 12,-24 27,-30 -4,22 -3,633 0,648 0,2 1,4 1,6 1,2 1,4 2,6 2,12 7,22 15,32 11,14 23,17 37,24l26 5c33,1 51,-7 71,-28 2,-2 4,-4 4,-4 6,-5 1,2 6,-8 4,-9 7,-10 9,-22 4,-25 5,-944 0,-981 -2,-16 -9,-30 -20,-41 -16,-15 -34,-26 -56,-29 -21,-3 -34,-1 -52,8 -45,21 -59,66 -82,107 -22,38 -37,73 -58,111 -12,22 -26,45 -35,70 -8,18 -22,36 -31,53l-17 36c-1,2 -3,5 -4,7 -5,10 -9,17 -14,28 -2,6 -4,7 -7,13 -3,5 -4,9 -7,14l-50 97c-5,7 -1,-1 -5,6l-53 105c-3,4 0,-1 -4,6l-19 34c-7,15 -9,15 -15,24 -10,-4 -15,-18 -19,-27l-87 -167c-3,-5 -5,-7 -8,-13l-7 -13c-6,-10 5,11 -3,-6l-9 -17c0,0 0,-1 -1,-2l-118 -228c-5,-10 -3,-2 -8,-14 -3,-7 2,2 -3,-7l-41 -76c-8,-19 -20,-36 -29,-54 -2,-3 -2,-5 -4,-8 0,0 0,-1 0,-1 -1,-1 -1,-1 -1,-2 -12,-20 -24,-52 -45,-65l-9 -5c-64,-42 -144,-1 -144,84l0 931c0,22 4,33 14,49 9,16 35,34 57,35 30,2 49,0 71,-18 28,-23 30,-43 30,-90 0,-85 -4,-585 2,-607 9,3 0,-2 8,7 1,0 1,1 2,1l149 272c8,12 15,28 21,39l9 17c0,1 1,2 1,2l59 107c2,4 1,4 4,9l29 50c10,18 31,36 50,41l24 3z"/>
    <path class="fil0" d="M3097 1130c-4,-25 -1,-253 -1,-306 0,-23 -5,-47 9,-51 5,-2 296,-7 329,6 24,10 9,1 43,17 17,8 23,13 37,26 4,4 3,5 7,9 2,2 3,3 6,7l13 19c2,5 4,8 6,10 2,6 14,46 14,59 0,30 1,84 -16,113l-34 48c-16,16 -55,34 -76,38 -12,2 -21,5 -30,7 -23,4 -294,5 -307,-2zm5 160c24,-5 77,-2 105,-2 106,0 148,1 255,-7l65 -14 56 -22c22,-13 45,-27 62,-43 32,-29 15,-12 38,-41 5,-5 8,-8 12,-14 8,-13 15,-20 20,-33 23,-52 17,-50 28,-90 16,-59 2,-194 -34,-245l-15 -24c-12,-19 -41,-50 -58,-63l-7 -4c-5,-4 -3,-2 -7,-5l-21 -13c-36,-21 -18,-12 -57,-28 -7,-3 -12,-2 -20,-5 -42,-15 -94,-20 -139,-20l-391 0c-14,0 -32,0 -43,7 -20,12 -9,0 -29,17 -17,16 -26,50 -26,72l0 905c0,16 3,33 7,42 6,14 5,18 16,31 18,22 30,22 43,28 14,6 48,6 61,2l34 -14c19,-17 30,-28 36,-55 6,-27 3,-222 3,-276 0,-22 -5,-71 6,-86z"/>
    <path class="fil0" d="M5951 1318c7,-11 21,-20 31,-30l42 -39c9,-8 14,-14 23,-22 2,-2 4,-4 6,-6 25,-20 51,-46 75,-68l21 -20c1,-1 1,-1 2,-1l17 -16c28,-29 63,-58 52,-104 -1,-3 -2,-7 -3,-9l-1 -4c-1,-1 -2,-3 -2,-4 -2,-7 -4,-11 -8,-15 -9,-14 -20,-25 -36,-33 -8,-3 -28,-7 -38,-6 -28,0 -41,5 -64,29l-251 241c0,0 -1,1 -1,1l-7 6c-23,17 -40,36 -60,56 -7,7 -4,5 -15,4 -5,-23 -1,-413 -1,-472 0,-43 6,-122 -8,-150 -16,-32 -40,-35 -57,-42 -45,-20 -125,11 -127,78 -4,104 0,212 0,316 0,105 0,210 0,316 0,104 -3,212 0,315 1,43 32,71 70,81 31,8 73,1 96,-23 5,-5 14,-13 19,-20 19,-32 0,-248 9,-304 25,3 37,27 55,40l65 59c5,4 3,4 7,7l78 70c3,3 1,1 5,5 5,4 3,2 7,7 1,1 4,3 4,3 0,1 1,1 1,1l112 101 68 51c10,4 18,5 30,5 27,0 46,-16 63,-35 15,-17 23,-47 16,-78 -5,-25 -26,-40 -43,-58 -1,0 -1,-1 -2,-1l-215 -195c-4,-4 -9,-7 -13,-11l-13 -10c-7,-5 -7,-6 -9,-16z"/>
    <path class="fil0" d="M8397 780c19,-10 350,-5 399,-5 43,0 63,5 96,-7 29,-10 39,-25 46,-54 7,-26 -8,-64 -21,-75 -20,-17 -43,-22 -77,-22 -134,-1 -270,0 -405,0 -43,0 -157,-7 -190,11 -53,29 -44,88 -44,156 0,270 0,539 0,808 0,40 0,77 27,103 2,2 6,6 7,6l4 4c12,9 7,6 18,9 8,2 5,2 10,5 7,3 -3,0 7,3 31,8 68,-3 84,-15 21,-15 34,-37 37,-64 6,-61 -4,-388 3,-399 13,-12 44,-7 69,-7 63,0 341,3 371,-3 42,-9 51,-13 65,-47 11,-26 2,-69 -16,-87 -16,-15 -25,-16 -51,-21 -21,-5 -342,-2 -409,-2 -25,0 -23,0 -28,-10 -4,-7 -4,-259 -2,-287z"/>
    <path class="fil0" d="M4032 1352c-3,-30 6,-98 12,-124 3,-12 17,-47 25,-59l37 -45 34 -22c7,-3 13,-7 19,-9 46,-15 98,-15 143,1 25,9 47,27 64,45 25,28 7,9 21,28 0,0 3,4 3,4 27,54 18,53 27,84 10,35 7,120 -1,153 -6,30 2,9 -11,44 -10,28 -12,39 -32,63 -13,17 -31,32 -53,43 -43,20 -73,21 -122,18 -2,0 -11,-1 -12,-1 0,0 -9,-3 -10,-3 -37,-11 -67,-23 -91,-55l-20 -28c-16,-29 -7,-17 -13,-34 0,-1 -1,-2 -1,-2 -13,-31 -15,-67 -19,-101zm-192 -15c4,31 1,64 9,90 8,27 9,55 23,76 5,8 3,11 7,19l21 40 61 72 39 30c7,5 -3,-3 3,2l85 38c18,6 0,4 37,11 8,1 12,4 18,5 24,6 67,5 94,5 45,0 91,-5 132,-20 6,-2 14,-3 19,-5 5,-2 11,-5 16,-7l49 -24c3,-2 7,-6 14,-11l39 -34c5,-4 7,-7 12,-12 24,-25 44,-56 60,-87l13 -34c2,-10 16,-46 21,-77 7,-52 8,-140 -4,-185 -8,-30 -16,-65 -31,-93l-27 -48c0,0 -1,-1 -1,-1 -15,-20 -27,-37 -44,-54l-24 -19c-35,-27 -24,-15 -46,-30 -19,-12 -28,-13 -41,-19 -18,-9 -20,-7 -37,-13 -16,-5 -28,-6 -48,-10 -70,-16 -117,-5 -180,3 -20,2 -22,6 -39,10 -8,2 -11,3 -17,6l-36 15c-12,5 -7,2 -15,8l-45 30c-13,10 -26,20 -36,34l-75 121c-7,22 -18,55 -20,76 -2,16 -8,73 -6,92z"/>
    <path class="fil0" d="M6521 1264c-7,-14 -1,-42 5,-57 1,-3 2,-7 3,-10 6,-25 4,-10 10,-24 10,-27 33,-59 57,-72 4,-2 1,0 7,-4 23,-18 57,-26 87,-26 55,0 76,4 112,30 10,7 5,3 13,12l14 14c0,0 2,2 2,3l14 20c8,18 19,54 21,71 1,7 2,15 2,21l-2 21c-32,6 -131,1 -171,1l-174 0zm2 103c34,-4 94,0 130,0 52,0 308,3 342,-1 10,-1 13,-5 21,-10 26,-15 19,-73 18,-98l-3 -29c-7,-42 -12,-60 -28,-100l-79 -114 -64 -42c-15,-11 -30,-13 -48,-21 -16,-6 -29,-7 -44,-10 -28,-7 -59,-8 -89,-8 -21,1 -44,6 -58,8 -9,2 -19,3 -29,5 -10,3 -12,6 -23,8 -19,4 -29,13 -46,20 -20,9 -11,7 -20,12l-31 19c-19,14 -36,29 -50,47 -2,3 -5,6 -7,8 -17,17 -34,48 -45,69 -13,25 -26,54 -30,82l-7 26c-1,3 -1,5 -1,8l-3 23c-4,75 -3,54 1,123 1,26 4,35 10,59l1 11c3,18 17,55 27,71 3,5 2,2 4,5l28 45c12,19 33,42 51,56l62 41c1,0 2,0 2,1 18,8 36,19 55,23 11,2 15,6 26,8 10,2 17,3 26,5 13,3 15,5 29,6 102,8 134,2 230,-22 24,-5 73,-31 95,-41l28 -22c13,-14 22,-31 23,-51 1,-11 0,-23 -2,-30l-8 -23c-7,-9 -12,-17 -22,-21l-19 -6c-11,-1 -17,3 -26,5 -25,6 -45,18 -65,28 -11,5 -16,5 -27,12 -3,1 0,0 -6,3 0,0 -5,1 -6,1 -17,4 -40,16 -62,19 -58,10 -139,5 -188,-31l-36 -37c-3,-4 0,0 -4,-4 -8,-9 -22,-39 -26,-56l-10 -37c-1,-4 -1,-10 -2,-15 -1,-13 1,-21 5,-28z"/>
    <path class="fil0" d="M7234 953c-26,9 -163,-26 -162,73 0,37 14,48 30,59 29,22 107,12 131,16 9,15 4,201 4,233 0,69 -4,207 35,262 4,6 8,15 10,19 4,4 10,11 13,15l16 17c9,9 21,21 31,26l19 10c6,4 0,1 5,4 5,2 -1,0 5,3l14 4c1,0 2,0 2,1l16 7c50,14 101,20 154,20 38,0 69,-9 86,-31 17,-21 18,-51 10,-71 -6,-12 -9,-15 -19,-23 0,0 -1,-1 -1,-1 -20,-16 -57,-19 -83,-19 -33,-1 -77,-10 -95,-40 -3,-5 -4,-6 -7,-10 -12,-18 -16,-46 -16,-69 0,-50 -2,-344 2,-352 3,-4 -2,-2 5,-6 11,-6 147,8 179,-13 1,-1 5,-4 6,-5l7 -3c30,-22 39,-122 -55,-124 -24,-1 -50,0 -74,0 -10,0 -59,3 -66,-4 -11,-11 3,-121 -7,-161l-4 -17c-2,-8 -4,-10 -7,-15 -19,-27 -49,-41 -84,-41 -30,0 -67,15 -83,42 -30,49 -2,167 -17,194z"/>
    <path class="fil0" d="M5112 1088c47,-9 89,6 125,22 5,1 8,2 12,4l74 38c13,5 30,5 43,2 31,-8 43,-45 43,-72 1,-21 -6,-41 -21,-58l-9 -9c-4,-4 -4,-3 -9,-7 -3,-3 -5,-6 -8,-8 -23,-15 -40,-20 -53,-27 -18,-11 -52,-20 -73,-26l-55 -10c-74,-9 -89,1 -148,7l-50 13c-23,8 -68,31 -87,45 -20,14 -31,23 -52,45l-66 94c-8,16 -15,42 -22,60 -5,12 -5,26 -9,38 -19,58 -11,176 10,235 3,8 4,19 8,26 2,5 3,3 6,11 11,35 32,62 53,91l40 41c8,8 2,3 10,7 4,3 6,4 9,7 15,11 17,11 26,16 30,19 41,19 49,24 5,3 -2,0 5,3 21,11 47,11 68,19 16,6 41,5 58,6 23,1 43,1 66,0 19,-1 79,-9 96,-16 13,-5 54,-16 61,-21l22 -12c16,-10 35,-17 49,-32 8,-9 16,-15 20,-27 4,-11 7,-14 7,-25 2,-31 -9,-77 -43,-86 -39,-11 -64,16 -97,30 -30,13 -58,31 -93,38 -21,4 -50,4 -72,2 -8,-1 0,0 -6,-1l-55 -19c-12,-4 -9,-6 -15,-9 -30,-19 -52,-44 -67,-78 -9,-17 -19,-54 -22,-75 -4,-27 -3,-64 -1,-92l8 -58c6,-32 18,-64 39,-89l11 -13c36,-34 65,-44 115,-54z"/>
   </g>
  </g>
 </g>
</svg>
